# Blender v2.79 (sub 0) OBJ File: ''
# www.blender.org
mtllib chechang.mtl
o 试车场
v 88.873955 8.062790 -13.648286
v 101.987953 2.923518 -13.648286
v 59.633270 10.000000 -13.648286
v -0.975813 0.901498 -13.648286
v 109.429161 0.901498 -13.648286
v 109.429161 1.665849 -13.648286
v 109.429161 1.665849 -25.000000
v 109.429161 0.901498 -25.000000
v 88.873955 8.062790 3.868005
v 59.633270 10.000000 3.868005
v 101.987953 2.923518 3.868005
v -0.975813 0.901498 3.868005
v 113.951576 0.901498 3.868005
v 113.951576 0.901498 25.000000
v -120.000000 0.901498 25.000000
v -120.000000 0.901498 -25.000000
v -120.000000 0.000000 -25.000000
v 119.285439 0.000000 -25.000000
v -120.000000 0.000000 25.000000
v 119.285439 0.000000 25.000000
v 119.285439 -0.000000 -25.000000
v 119.285439 -0.000000 25.000000
v 119.285439 -0.000000 -25.000000
vn 0.0000 0.0000 -1.0000
vn -1.0000 0.0000 0.0000
vn 0.0000 0.0000 1.0000
vn 0.0000 1.0000 0.0000
vn 0.0000 -1.0000 0.0000
vn -0.1485 0.9889 0.0000
vn 0.0661 0.9978 0.0000
vn 0.3649 0.9311 0.0000
vn 0.1667 0.9860 0.0000
usemtl None
s off
f 1//1 2//1 3//1
f 3//1 2//1 4//1
f 4//1 2//1 5//1
f 5//1 2//1 6//1
f 6//2 7//2 5//2
f 5//2 7//2 8//2
f 9//3 10//3 11//3
f 11//3 10//3 12//3
f 11//3 12//3 13//3
f 13//4 12//4 14//4
f 14//4 12//4 15//4
f 15//4 12//4 16//4
f 16//4 12//4 4//4
f 16//4 4//4 8//4
f 8//4 4//4 5//4
f 17//5 18//5 19//5
f 19//5 18//5 20//5
f 20//3 14//3 19//3
f 19//3 14//3 15//3
f 19//2 15//2 17//2
f 17//2 15//2 16//2
f 7//1 21//1 8//1
f 8//1 21//1 17//1
f 8//1 17//1 16//1
f 3//6 4//6 10//6
f 10//6 4//6 12//6
f 1//7 3//7 9//7
f 9//7 3//7 10//7
f 2//8 1//8 11//8
f 11//8 1//8 9//8
f 14//9 22//9 13//9
f 13//9 22//9 23//9
f 13//9 23//9 6//9
f 6//9 23//9 7//9
f 13//9 6//9 11//9
f 11//9 6//9 2//9
